:SAMPLES-PER-SECOND 30
:FRAME-RANGE 1-3535
:FULLY-SPECIFIED
:DEGREES
3094
root  -6.17895 39.2973 -3.50837 172.899 6.52617 176.851
RightUpLeg  -4.71809 -15.4904 -4.63511
RightLeg  22.6273 -1.26821 2.97375
RightFoot  -11.0965 -0.0789115 1.7306
RightToes  1.22775e-009 1.2921e-014 -6.02303e-014
Spine  26.28 2.82856 5.22031
Spine1  4.04369 5.93734 -13.7522
HEad  -17.0675 -12.3023 -4.53842
LeftShoulder1  1.32609 -0.718005 -25.2164
LeftArm  -27.3567 -23.0508 -14.7751
LeftForeArm  9.94943 -59.7287 -18.7679
LeftHand  0.393843 0.78402 -10.1314
RightShoulder  14.6821 28.7237 39.1176
RightArm  -11.3041 17.9697 20.1032
RightForeArm  -9.26977 56.2468 17.8384
RightHand  0.362631 -1.98372 12.8895
LeftUpLeg  -64.0329 16.7246 9.10066
LeftLeg  87.8706 -0.274116 -7.23814
LeftFoot  2.82584 1.36322 -11.0827
LeftToes  2.52163e-011 5.65494e-011 -1.09494e-012
3095
root  -5.46212 39.3001 -3.20893 172.987 5.67334 177.449
RightUpLeg  -4.48918 -15.3776 -3.2195
RightLeg  21.7578 -2.60471 3.60859
RightFoot  -10.4205 -0.0743381 0.465554
RightToes  1.22775e-009 1.2921e-014 -6.02303e-014
Spine  27.4539 3.32553 4.12584
Spine1  4.01571 6.25447 -14.6213
HEad  -17.9168 -14.0706 -3.57036
LeftShoulder1  1.48309 -1.08829 -26.1426
LeftArm  -21.2996 -25.018 -15.9295
LeftForeArm  2.71825 -51.3266 -13.8781
LeftHand  0.492591 -0.0456561 -10.5753
RightShoulder  16.141 31.3762 39.703
RightArm  -8.05193 21.3256 22.9208
RightForeArm  -14.4164 43.7317 11.6101
RightHand  0.589231 -0.118441 13.0173
LeftUpLeg  -67.0662 16.9498 9.44371
LeftLeg  89.9565 0.115941 -10.8405
LeftFoot  2.26949 1.24144 -10.4969
LeftToes  2.52163e-011 5.65494e-011 -1.09494e-012
3096
root  -4.8712 39.1812 -2.95808 172.986 4.24225 178.488
RightUpLeg  -4.71252 -15.5862 -1.42968
RightLeg  22.064 -4.34132 3.65097
RightFoot  -10.3831 -0.0646492 -0.67512
RightToes  1.22775e-009 1.2921e-014 -6.02303e-014
Spine  28.1984 3.45828 3.62507
Spine1  4.58344 6.23842 -14.4108
HEad  -18.958 -14.819 -2.53751
LeftShoulder1  1.65402 -1.48737 -27.0189
LeftArm  -12.5016 -27.5404 -17.6514
LeftForeArm  -6.84889 -40.4072 -9.94355
LeftHand  0.605013 -0.566253 -11.7701
RightShoulder  17.5833 33.9898 40.1825
RightArm  -2.44406 25.3553 25.1011
RightForeArm  -21.3666 30.7963 7.81013
RightHand  0.81482 1.24002 14.1161
LeftUpLeg  -67.6597 15.9489 10.2798
LeftLeg  90.8748 0.400244 -12.9007
LeftFoot  2.02987 1.24181 -10.6767
LeftToes  2.52163e-011 5.65494e-011 -1.09494e-012
3097
root  -4.37513 38.952 -2.66678 173.277 2.47208 179.844
RightUpLeg  -5.58311 -16.0441 0.605822
RightLeg  22.8221 -5.82515 3.65429
RightFoot  -10.941 -0.0684352 -1.59831
RightToes  1.22775e-009 1.2921e-014 -6.02303e-014
Spine  28.0324 3.24475 3.97243
Spine1  5.73904 6.15567 -13.8047
HEad  -19.5716 -15.1528 -2.19283
LeftShoulder1  1.85932 -2.02743 -27.5156
LeftArm  1.38917 -30.4184 -20.1315
LeftForeArm  -21.2704 -29.271 -7.40056
LeftHand  0.598372 -0.00203077 -12.9389
RightShoulder  18.9277 36.4643 40.5023
RightArm  0.0262007 29.2921 26.3509
RightForeArm  -23.0504 17.7153 9.45616
RightHand  0.896929 2.07161 13.7309
LeftUpLeg  -66.2406 14.3721 11.2259
LeftLeg  90.648 0.320142 -12.3079
LeftFoot  2.84076 1.36753 -11.1061
LeftToes  2.52163e-011 5.65494e-011 -1.09494e-012
3098
root  -3.98487 38.6333 -2.38695 173.885 0.65004 -178.476
RightUpLeg  -7.1986 -16.3686 2.981
RightLeg  24.1021 -7.58653 3.4434
RightFoot  -11.9126 -0.0914996 -2.195
RightToes  1.22775e-009 1.2921e-014 -6.02303e-014
Spine  27.4174 3.00206 5.07857
Spine1  6.67056 6.13326 -12.6945
HEad  -20.215 -15.4249 -1.31792
LeftShoulder1  2.0352 -2.59176 -27.287
LeftArm  12.3532 -32.7837 -24.0375
LeftForeArm  -33.2067 -19.9475 -9.30044
LeftHand  0.441324 1.41022 -13.2498
RightShoulder  20.7306 39.5865 41.0498
RightArm  -14.9352 30.6004 24.3234
RightForeArm  -7.17311 3.81822 14.5228
RightHand  0.854161 2.24008 12.771
LeftUpLeg  -62.9715 12.7503 12.2756
LeftLeg  89.538 0.0410414 -10.9389
LeftFoot  4.54237 1.57932 -11.4896
LeftToes  2.52163e-011 5.65494e-011 -1.09494e-012
